<?xml version="1.0" encoding="iso-8859-1"?>
<!-- Generator: Adobe Illustrator 18.0.0, SVG Export Plug-In . SVG Version: 6.00 Build 0)  -->
<!DOCTYPE svg PUBLIC "-//W3C//DTD SVG 1.1//EN" "http://www.w3.org/Graphics/SVG/1.1/DTD/svg11.dtd">
<svg xmlns="http://www.w3.org/2000/svg" xmlns:xlink="http://www.w3.org/1999/xlink" version="1.1" id="Capa_1" x="0px" y="0px" viewBox="0 0 305.048 305.048" style="enable-background:new 0 0 305.048 305.048;" xml:space="preserve" width="512px" height="512px">
<g>
	<path d="M265.245,239.356l-22.985-16.679l-51.554-55.799l102.376-94.587c6.854-6.333,10.731-14.959,10.916-24.29   s-3.348-18.104-9.947-24.702c-6.601-6.602-15.358-10.114-24.713-9.947c-9.334,0.188-17.961,4.069-24.293,10.931l-92.986,100.766   L58.946,24.267c-6.333-6.854-14.959-10.731-24.29-10.916c-9.338-0.199-18.104,3.348-24.702,9.947   C3.352,29.901-0.18,38.677,0.007,48.012c0.188,9.334,4.069,17.961,10.93,24.292l102.505,94.591l-51.568,55.883L38.78,239.365   c-3.388-1.753-7.656-1.212-10.498,1.63c-3.515,3.515-3.515,9.213,0,12.728l35.345,35.345c1.757,1.757,4.061,2.636,6.364,2.636   s4.606-0.879,6.364-2.636c2.836-2.836,3.381-7.093,1.639-10.478l16.679-22.985l57.415-53.047l57.345,52.918l16.587,23.094   c-1.754,3.388-1.212,7.656,1.63,10.498c1.757,1.757,4.061,2.636,6.364,2.636s4.606-0.879,6.364-2.636l35.345-35.345   c3.515-3.515,3.515-9.213,0-12.728C272.887,238.159,268.63,237.615,265.245,239.356z M80.627,244.313l-15.265,21.036   l-13.336-13.336l21.091-15.148c0.495-0.355,0.952-0.759,1.364-1.207l16.855-18.265l8.726,8.726l-18.259,16.869   C81.369,243.39,80.975,243.833,80.627,244.313z M113.293,213.894l-9.74-9.74l154.72-167.665c2.978-3.227,7.036-5.053,11.426-5.141   c4.417-0.086,8.519,1.574,11.624,4.678c3.104,3.104,4.765,7.23,4.678,11.619c-0.086,4.388-1.91,8.446-5.134,11.424L113.293,213.894   z M18.003,47.651c-0.088-4.391,1.574-8.519,4.679-11.625c3.104-3.104,7.221-4.789,11.619-4.678   c4.388,0.086,8.445,1.91,11.424,5.134l94.088,101.836l-14.164,15.349L23.144,59.076C19.917,56.099,18.092,52.041,18.003,47.651z    M177.485,179.092l23.064,24.963l-9.741,9.74l-25.458-23.492L177.485,179.092z M212.774,217.287l16.869,18.258   c0.402,0.435,0.845,0.829,1.325,1.177l21.036,15.264l-13.336,13.336l-15.148-21.091c-0.355-0.495-0.759-0.952-1.207-1.364   l-18.265-16.855L212.774,217.287z" fill="#FFFFFF"/>
	<path d="M268.316,131.265c-20.254,0-36.732,16.479-36.732,36.733s16.478,36.732,36.732,36.732s36.732-16.478,36.732-36.732   S288.57,131.265,268.316,131.265z M268.316,186.731c-10.329,0-18.732-8.403-18.732-18.732c0-10.33,8.403-18.733,18.732-18.733   s18.732,8.403,18.732,18.733C287.048,178.327,278.645,186.731,268.316,186.731z" fill="#FFFFFF"/>
</g>
<g>
</g>
<g>
</g>
<g>
</g>
<g>
</g>
<g>
</g>
<g>
</g>
<g>
</g>
<g>
</g>
<g>
</g>
<g>
</g>
<g>
</g>
<g>
</g>
<g>
</g>
<g>
</g>
<g>
</g>
</svg>
